<svg id="visual" viewBox="0 0 1920 1080" width="1920" height="1080" xmlns="http://www.w3.org/2000/svg" xmlns:xlink="http://www.w3.org/1999/xlink" version="1.1"><rect x="0" y="0" width="1920" height="1080" fill="#001220"></rect><defs><linearGradient id="grad1_0" x1="43.8%" y1="0%" x2="100%" y2="100%"><stop offset="14.444444444444446%" stop-color="#fbae3c" stop-opacity="1"></stop><stop offset="85.55555555555554%" stop-color="#fbae3c" stop-opacity="1"></stop></linearGradient></defs><defs><linearGradient id="grad1_1" x1="43.8%" y1="0%" x2="100%" y2="100%"><stop offset="14.444444444444446%" stop-color="#fbae3c" stop-opacity="1"></stop><stop offset="85.55555555555554%" stop-color="#96446e" stop-opacity="1"></stop></linearGradient></defs><defs><linearGradient id="grad1_2" x1="43.8%" y1="0%" x2="100%" y2="100%"><stop offset="14.444444444444446%" stop-color="#001220" stop-opacity="1"></stop><stop offset="85.55555555555554%" stop-color="#96446e" stop-opacity="1"></stop></linearGradient></defs><defs><linearGradient id="grad2_0" x1="0%" y1="0%" x2="56.3%" y2="100%"><stop offset="14.444444444444446%" stop-color="#fbae3c" stop-opacity="1"></stop><stop offset="85.55555555555554%" stop-color="#fbae3c" stop-opacity="1"></stop></linearGradient></defs><defs><linearGradient id="grad2_1" x1="0%" y1="0%" x2="56.3%" y2="100%"><stop offset="14.444444444444446%" stop-color="#96446e" stop-opacity="1"></stop><stop offset="85.55555555555554%" stop-color="#fbae3c" stop-opacity="1"></stop></linearGradient></defs><defs><linearGradient id="grad2_2" x1="0%" y1="0%" x2="56.3%" y2="100%"><stop offset="14.444444444444446%" stop-color="#96446e" stop-opacity="1"></stop><stop offset="85.55555555555554%" stop-color="#001220" stop-opacity="1"></stop></linearGradient></defs><g transform="translate(1920, 0)"><path d="M0 810C-119.7 793.1 -239.4 776.2 -285.9 690.1C-332.3 604.1 -305.6 448.8 -387.5 387.5C-469.4 326.2 -659.8 358.9 -748.3 310C-836.9 261.1 -823.4 130.5 -810 0L0 0Z" fill="#3d3056"></path><path d="M0 540C-79.8 528.7 -159.6 517.5 -190.6 460.1C-221.6 402.7 -203.8 299.2 -258.3 258.3C-312.9 217.5 -439.9 239.3 -498.9 206.6C-557.9 174 -549 87 -540 0L0 0Z" fill="#e1685e"></path><path d="M0 270C-39.9 264.4 -79.8 258.7 -95.3 230C-110.8 201.4 -101.9 149.6 -129.2 129.2C-156.5 108.7 -219.9 119.6 -249.4 103.3C-279 87 -274.5 43.5 -270 0L0 0Z" fill="#fbae3c"></path></g><g transform="translate(0, 1080)"><path d="M0 -810C45.3 -663.6 90.6 -517.1 208.2 -502.6C325.7 -488.1 515.6 -605.4 572.8 -572.8C629.9 -540.1 554.5 -357.3 571.9 -236.9C589.3 -116.4 699.7 -58.2 810 0L0 0Z" fill="#3d3056"></path><path d="M0 -540C30.2 -442.4 60.4 -344.7 138.8 -335.1C217.2 -325.4 343.7 -403.6 381.8 -381.8C420 -360.1 369.6 -238.2 381.3 -157.9C392.9 -77.6 466.4 -38.8 540 0L0 0Z" fill="#e1685e"></path><path d="M0 -270C15.1 -221.2 30.2 -172.4 69.4 -167.5C108.6 -162.7 171.9 -201.8 190.9 -190.9C210 -180 184.8 -119.1 190.6 -79C196.4 -38.8 233.2 -19.4 270 0L0 0Z" fill="#fbae3c"></path></g></svg>